<svg width="595" height="115" viewBox="0 0 595 115" fill="none" xmlns="http://www.w3.org/2000/svg">
<path d="M312.39 3.77929C319.25 -1.20071 329.96 -1.67072 336 4.85928C341.59 11.0893 343.84 19.4793 345.75 27.4393C348.67 39.8193 348.75 53.1693 344.16 65.1593C340.12 75.7193 332.76 84.6093 324.69 92.3693C337.76 102.289 354.72 107.639 371.11 105.229C389.25 101.819 406.74 92.5193 418.34 77.9593C412.47 70.7293 408.72 61.7893 408.19 52.4593C407.62 43.9693 408.74 34.9393 413.54 27.7093C416.45 23.3093 422.32 20.1293 427.51 22.3593C432.35 24.5093 434.63 29.8093 435.98 34.6093C439.86 49.8793 437.35 66.8193 428.92 80.1593C440.25 89.9893 455.48 94.6893 470.38 94.0393C493.07 93.3993 515.69 89.8593 538.43 91.0893C557.86 92.4993 577.96 95.9293 594.68 106.539C579.72 98.7593 562.66 96.9593 546.09 95.8993C524.44 95.0893 502.86 97.6893 481.34 99.6693C472.02 100.389 462.54 100.909 453.32 99.0493C442.9 96.9993 433.06 92.1993 425.01 85.2693C413.28 99.2893 396.43 108.439 378.88 112.939C357.68 118.559 334.73 111.469 318.13 97.7493C305.79 106.359 291.67 113.289 276.46 114.389C266.5 115.019 255.94 113.889 247.33 108.479C237.56 102.519 230.34 93.1293 225.4 82.9393C211.47 94.7593 194.94 103.399 177.29 108.109C162.64 112.099 147.44 113.959 132.28 114.159C114.38 114.049 96.64 110.889 79.43 106.149C65.29 102.559 51.08 96.9693 36.23 98.6493C22.73 99.8893 10.57 106.729 0 114.849C10.06 103.759 24.29 96.3893 39.25 95.0693C48.75 93.9793 58.19 96.1593 67.43 98.1093C80.93 101.099 94.45 104.369 108.28 105.459C134.38 107.809 161.03 104.099 185.47 94.6193C198.86 89.3493 211.02 81.2693 221.51 71.4693C220.07 62.9893 220.46 53.7293 225.19 46.2893C228.06 41.7493 232.49 36.8993 238.36 37.3293C245.81 38.0893 249.94 46.7193 247.95 53.4693C245.24 64.0793 236.87 71.8393 229.47 79.3993C235.78 91.8393 246.16 103.619 260.4 106.459C278.78 110.279 297.41 102.769 312 91.8993C306.61 86.3193 301.99 79.8393 299.52 72.4193C294.68 57.9693 295.09 42.2293 298.35 27.4893C300.51 18.4693 304.76 9.39929 312.39 3.77929ZM310.77 12.9893C303.62 22.5193 302.49 34.9593 302.33 46.4793C302.2 61.2493 307.08 76.6093 318.34 86.6493C326.22 79.1993 333.26 70.4293 336.86 60.0893C341.65 45.4093 339.36 29.2793 333.66 15.1893C332.09 11.8193 330.23 7.85929 326.34 6.77929C320.45 4.85929 314.18 8.20928 310.77 12.9893ZM416.81 31.0793C409.16 44.2093 412.88 61.3693 422.02 72.7893C428.23 61.6593 430.24 48.3093 428.04 35.7893C427.38 32.7993 426.66 29.4993 424.3 27.3593C421.3 26.0793 418.26 28.6293 416.81 31.0793ZM232.21 45.3393C226.08 50.7193 224.95 59.4493 225.69 67.1493C230.42 62.6393 234.64 57.4793 237.62 51.6393C238.78 49.3193 239.77 46.2093 237.92 43.9693C236.05 42.1993 233.8 44.1793 232.21 45.3393Z" fill="#EEB7A2"/>
</svg>
