<svg width="2271" height="850" viewBox="0 0 2271 850" fill="none" xmlns="http://www.w3.org/2000/svg">
<g clip-path="url(#clip0)">
<path d="M0 604V601.7L4.83 599.86C8.05 598.63 10.04 597.18 10.83 595.49C11.8456 593.174 12.3176 590.656 12.21 588.13V468.07C12.3176 465.543 11.8456 463.025 10.83 460.71C9.91 458.87 7.91 457.413 4.83 456.34L0 454.5V452.2H58.65V454.5L54.51 456.34C51.6 457.41 49.6 458.95 48.51 460.94C47.3516 463.213 46.8103 465.751 46.94 468.3V599.4H82.34C88.0067 599.4 92.1467 598.02 94.76 595.26C98.0279 591.732 100.672 587.674 102.58 583.26L111.58 563.94H113.88L111.81 603.94L0 604ZM181.48 489.92C191.48 489.92 199.99 491.99 207.01 496.13C213.89 499.944 219.491 505.704 223.11 512.69C227.033 519.96 229.014 528.12 228.86 536.38C228.86 538.07 228.78 539.83 228.63 541.67C228.503 543.233 228.195 544.777 227.71 546.27H159.17C159.317 562.83 162.23 574.79 167.91 582.15C173.743 589.383 182.33 593 193.67 593C201.343 593 207.553 591.773 212.3 589.32C217.391 586.594 221.918 582.925 225.64 578.51L227.94 580.58C223.443 588.749 216.854 595.575 208.85 600.36C201.03 605.113 191.6 607.49 180.56 607.49C169.667 607.49 160 605.19 151.56 600.59C143.164 595.877 136.299 588.852 131.78 580.35C127.033 571.61 124.657 561.183 124.65 549.07C124.65 536.503 127.41 525.836 132.93 517.07C138.052 508.556 145.358 501.568 154.09 496.83C162.511 492.304 171.92 489.93 181.48 489.92V489.92ZM180.79 494.52C176.577 494.435 172.482 495.909 169.29 498.66C166.223 501.266 163.77 506.02 161.93 512.92C160.243 519.673 159.323 529.256 159.17 541.67H198.5C200.033 524.963 199.42 512.926 196.66 505.56C193.9 498.193 188.61 494.513 180.79 494.52V494.52ZM284.02 607.45C274.213 607.45 266.547 604.996 261.02 600.09C255.633 595.176 252.94 587.356 252.94 576.63V498H237.1V495.7L242.62 494.78C246.897 493.888 251.01 492.336 254.81 490.18C258.606 487.994 262.088 485.302 265.16 482.18L284.02 461.25H286.32L285.63 493.45H311.39V498H285.39V580.8C285.39 586.173 286.54 590.236 288.84 592.99C289.972 594.317 291.384 595.377 292.975 596.093C294.566 596.809 296.296 597.163 298.04 597.13C301.038 597.189 303.99 596.391 306.55 594.83C309.264 592.911 311.735 590.672 313.91 588.16L316.21 590.46C313.166 595.645 308.801 599.931 303.56 602.88C298.207 605.926 291.693 607.45 284.02 607.45ZM366.9 607.45C357.093 607.45 349.427 604.996 343.9 600.09C338.567 595.176 335.9 587.356 335.9 576.63V498H319.94V495.7L325.46 494.78C329.738 493.89 333.851 492.338 337.65 490.18C341.446 487.994 344.928 485.302 348 482.18L366.94 461.17H369.24L368.55 493.37H394.31V498H368.31V580.8C368.31 586.173 369.46 590.236 371.76 592.99C372.892 594.317 374.304 595.377 375.895 596.093C377.486 596.809 379.216 597.163 380.96 597.13C383.958 597.189 386.91 596.391 389.47 594.83C392.181 592.909 394.652 590.669 396.83 588.16L399.13 590.46C396.09 595.649 391.724 599.935 386.48 602.88C381.093 605.926 374.58 607.45 366.94 607.45H366.9ZM463.36 489.92C473.36 489.92 481.87 491.99 488.89 496.13C495.773 499.941 501.374 505.702 504.99 512.69C508.918 519.958 510.898 528.119 510.74 536.38C510.74 538.07 510.67 539.83 510.51 541.67C510.383 543.233 510.075 544.777 509.59 546.27H441.05C441.21 562.83 444.123 574.79 449.79 582.15C455.623 589.383 464.21 593 475.55 593C483.217 593 489.427 591.773 494.18 589.32C499.273 586.596 503.8 582.928 507.52 578.51L509.82 580.58C505.325 588.751 498.736 595.578 490.73 600.36C482.91 605.113 473.48 607.49 462.44 607.49C451.56 607.49 441.893 605.19 433.44 600.59C425.047 595.874 418.182 588.849 413.66 580.35C408.913 571.61 406.537 561.183 406.53 549.07C406.53 536.503 409.29 525.836 414.81 517.07C419.934 508.558 427.24 501.571 435.97 496.83C444.391 492.304 453.8 489.93 463.36 489.92V489.92ZM462.67 494.52C458.458 494.436 454.362 495.91 451.17 498.66C448.11 501.266 445.657 506.02 443.81 512.92C442.13 519.673 441.21 529.256 441.05 541.67H480.38C481.92 524.963 481.307 512.926 478.54 505.56C475.773 498.193 470.483 494.513 462.67 494.52V494.52ZM522.21 604V601.7L525.66 600.78C528.72 599.86 530.79 598.48 531.87 596.64C533.175 594.497 533.815 592.016 533.71 589.51V517.51C533.71 514.14 533.09 511.68 531.87 510.15C530.79 508.456 528.72 507.306 525.66 506.7L522.21 505.78V503.48L561.77 490.14L564.07 492.44L566.14 512.22V514.06C568.291 509.754 571.083 505.799 574.42 502.33C577.777 498.766 581.654 495.732 585.92 493.33C589.784 491.144 594.132 489.959 598.57 489.88C604.39 489.88 608.837 491.49 611.91 494.71C613.441 496.339 614.635 498.255 615.424 500.346C616.214 502.438 616.583 504.665 616.51 506.9C616.51 512.106 614.977 516.17 611.91 519.09C610.505 520.441 608.847 521.502 607.032 522.212C605.217 522.922 603.279 523.268 601.33 523.23C594.89 523.23 589.223 520.01 584.33 513.57L583.87 513.11C582.33 510.963 580.567 509.813 578.58 509.66C576.58 509.353 574.74 510.273 573.06 512.42C571.472 513.865 570.149 515.578 569.15 517.48C568.12 519.577 567.199 521.727 566.39 523.92V588.09C566.39 594.223 569.073 598.056 574.44 599.59L581.8 601.66V604H522.21ZM651.33 478C646.436 478.115 641.676 476.391 637.99 473.17C636.266 471.553 634.904 469.59 633.992 467.41C633.08 465.23 632.64 462.882 632.7 460.52C632.611 458.153 633.039 455.796 633.952 453.612C634.866 451.428 636.243 449.468 637.99 447.87C641.67 444.633 646.43 442.895 651.33 443C656.159 442.858 660.857 444.589 664.44 447.83C666.187 449.428 667.564 451.388 668.478 453.572C669.391 455.756 669.819 458.113 669.73 460.48C669.79 462.842 669.349 465.19 668.438 467.37C667.526 469.55 666.164 471.513 664.44 473.13C660.863 476.385 656.165 478.13 651.33 478V478ZM624.19 604V601.7L627.41 600.78C630.477 599.86 632.547 598.48 633.62 596.64C634.951 594.424 635.592 591.861 635.46 589.28V517.28C635.46 514.06 634.847 511.683 633.62 510.15C632.553 508.456 630.483 507.306 627.41 506.7L624.19 506.01V503.71L666.28 490.14L668.58 492.44L667.94 525.11V589.51C667.823 592.062 668.378 594.6 669.55 596.87C671.085 598.92 673.277 600.382 675.76 601.01L678.06 601.7V604H624.19ZM688.19 604V601.7L691.41 600.78C696.783 599.253 699.45 595.496 699.41 589.51V517.51C699.41 514.14 698.88 511.68 697.8 510.15C696.733 508.456 694.663 507.306 691.59 506.7L688.14 505.78V503.48L727.47 490.14L729.77 492.44L731.61 506.24C737.049 501.446 743.173 497.493 749.78 494.51C756.037 491.552 762.86 489.983 769.78 489.91C779.9 489.91 787.643 492.67 793.01 498.19C798.53 503.71 801.29 512.143 801.29 523.49V589.73C801.29 595.73 804.203 599.486 810.03 601L812.1 601.69V604H757.88V601.7L760.88 600.78C766.247 599.093 768.93 595.336 768.93 589.51V516.14C768.93 506.326 764.023 501.42 754.21 501.42C747.47 501.42 740.11 504.793 732.13 511.54V589.74C732.13 595.74 734.813 599.496 740.18 601.01L742.25 601.7V604H688.19ZM871.3 564.21C860.72 564.21 851.75 562.446 844.39 558.92V566.74C844.39 571.493 846.767 574.33 851.52 575.25L894.76 583.25C901.434 584.478 907.979 586.326 914.31 588.77C919.715 590.646 924.54 593.896 928.31 598.2C931.837 602.2 933.6 607.72 933.6 614.76C933.592 622.299 930.993 629.607 926.24 635.46C921.327 641.9 914.043 647.036 904.39 650.87C894.883 654.87 883 656.87 868.74 656.87C856.467 656.87 846.73 655.566 839.53 652.96C832.317 650.506 827.18 647.286 824.12 643.3C821.33 639.668 819.796 635.229 819.75 630.65C819.75 625.13 821.59 619.533 825.27 613.86C828.948 608.479 833.718 603.933 839.27 600.52C834.523 598.68 831.073 596.303 828.92 593.39C826.842 590.684 825.711 587.371 825.7 583.96C825.682 580.967 826.477 578.026 828 575.45C829.797 572.548 831.802 569.78 834 567.17L841.59 557.51C830.397 551.07 824.8 540.95 824.8 527.15C824.8 516.11 828.71 507.14 836.53 500.24C844.53 493.34 856.197 489.89 871.53 489.89C878.454 489.765 885.356 490.695 892 492.65C897.406 494.182 902.424 496.848 906.72 500.47C911.441 499.754 916.069 498.519 920.52 496.79C924.895 495.008 928.949 492.522 932.52 489.43L935.74 491.73V503.46H909.74C915.26 509.586 918.02 517.483 918.02 527.15C918.124 532.208 917.101 537.227 915.025 541.841C912.95 546.456 909.874 550.551 906.02 553.83C898.207 560.75 886.633 564.21 871.3 564.21ZM871.07 559.61C877.203 559.61 881.65 557.08 884.41 552.02C887.323 546.96 888.78 538.526 888.78 526.72C888.78 514.913 887.323 506.633 884.41 501.88C881.65 496.973 877.357 494.52 871.53 494.52C865.857 494.52 861.563 497.05 858.65 502.11C855.737 507.016 854.28 515.373 854.28 527.18C854.28 538.986 855.583 547.343 858.19 552.25C860.95 557.163 865.243 559.616 871.07 559.61ZM836.8 623.32C836.8 632.366 839.56 639.19 845.08 643.79C850.747 648.39 859.64 650.69 871.76 650.69C884.487 650.69 894.07 648.62 900.51 644.48C906.95 640.34 910.17 634.513 910.17 627C910.232 625.017 909.828 623.047 908.989 621.249C908.15 619.451 906.9 617.876 905.34 616.65C902.273 614.036 896.983 612.036 889.47 610.65L847.84 602.83L844.16 601.91C841.945 605.109 840.166 608.59 838.87 612.26C837.571 615.806 836.871 619.544 836.8 623.32V623.32ZM1188.69 608.14C1173.82 608.14 1160.33 605.14 1148.21 599.14C1136.28 593.039 1126.37 583.612 1119.69 572C1112.64 560.04 1109.12 545.396 1109.11 528.07C1109.11 514.876 1111.26 503.3 1115.55 493.34C1119.52 483.831 1125.48 475.283 1133.03 468.27C1140.51 461.536 1149.27 456.374 1158.79 453.09C1168.79 449.687 1179.28 447.977 1189.84 448.03C1197.99 447.96 1206.11 448.969 1213.99 451.03C1221.19 452.957 1228.14 455.737 1234.69 459.31L1235.61 487.6H1233.31L1221.81 469.2C1220.38 466.438 1218.68 463.82 1216.75 461.38C1214.97 458.974 1212.59 457.072 1209.85 455.86C1207.65 454.821 1205.33 454.049 1202.95 453.56C1200.24 452.882 1197.46 452.572 1194.67 452.64C1186.02 452.568 1177.54 455.048 1170.29 459.77C1163.08 464.523 1157.26 472.42 1152.81 483.46C1148.52 494.346 1146.38 509.296 1146.37 528.31C1146.37 547.17 1148.44 562.12 1152.58 573.16C1156.72 584.053 1162.32 591.873 1169.37 596.62C1176.58 601.217 1184.97 603.615 1193.52 603.52C1197.45 603.601 1201.38 603.292 1205.25 602.6C1208.26 601.797 1211.18 600.719 1213.99 599.38C1216.69 598.321 1219.01 596.479 1220.66 594.09C1222.22 591.582 1223.6 588.969 1224.8 586.27L1234.94 563.75H1237.24L1236.55 596.64C1229.67 600.18 1222.42 602.956 1214.93 604.92C1206.36 607.144 1197.54 608.226 1188.69 608.14V608.14ZM1281.27 607.45C1272.38 607.45 1264.87 604.92 1258.73 599.86C1252.73 594.8 1249.73 587.516 1249.73 578.01C1249.73 570.796 1253.4 564.203 1260.73 558.23C1268.06 552.103 1279.64 547.503 1295.46 544.43C1297.92 543.97 1300.68 543.51 1303.74 543.05C1306.81 542.44 1310.03 541.82 1313.4 541.21V523C1313.4 512.573 1312.1 505.29 1309.49 501.15C1307.04 496.856 1303.13 494.71 1297.76 494.71C1296.12 494.632 1294.49 494.923 1292.97 495.559C1291.46 496.196 1290.11 497.163 1289.02 498.39C1286.88 500.69 1285.5 504.753 1284.88 510.58L1284.42 513.11C1284.12 519.703 1282.51 524.533 1279.59 527.6C1278.22 529.089 1276.54 530.269 1274.68 531.062C1272.82 531.855 1270.8 532.243 1268.78 532.2C1265.13 532.322 1261.57 530.999 1258.89 528.52C1257.58 527.24 1256.55 525.697 1255.88 523.993C1255.2 522.288 1254.9 520.461 1254.98 518.63C1254.91 515.685 1255.45 512.757 1256.56 510.028C1257.66 507.299 1259.32 504.825 1261.42 502.76C1265.87 498.466 1271.69 495.246 1278.9 493.1C1286.52 490.894 1294.43 489.809 1302.36 489.88C1316.01 489.88 1326.52 493.253 1333.87 500C1341.39 506.586 1345.15 517.396 1345.14 532.43V583.3C1345.14 590.2 1348.36 593.65 1354.8 593.65H1359.94L1362.01 595.49C1359.38 598.929 1356.09 601.821 1352.35 604C1348.98 606 1344.15 607 1337.86 607C1331.12 607 1325.75 605.466 1321.76 602.4C1317.9 599.136 1315.24 594.688 1314.17 589.75C1309.85 594.415 1305.08 598.648 1299.94 602.39C1295.17 605.756 1288.94 607.443 1281.27 607.45ZM1295.27 593.45C1298.23 593.476 1301.16 592.764 1303.78 591.38C1307.2 589.38 1310.44 587.07 1313.44 584.48V545.81L1308.84 546.73C1307.31 547.04 1305.55 547.34 1303.55 547.65C1296.5 549.49 1290.83 552.633 1286.55 557.08C1282.41 561.366 1280.34 567.193 1280.34 574.56C1280.34 580.853 1281.8 585.606 1284.71 588.82C1286.05 590.292 1287.69 591.464 1289.51 592.257C1291.34 593.05 1293.31 593.446 1295.3 593.42L1295.27 593.45ZM1367.43 604V601.7L1370.19 600.78C1375.71 598.94 1378.47 595.106 1378.47 589.28V466.28C1378.47 463.21 1377.85 460.91 1376.63 459.38C1375.4 457.69 1373.25 456.47 1370.19 455.7L1367.19 455.01V452.71L1409.28 442.82L1412.04 444.89L1411.12 477.09V572.77C1411.27 578.29 1411.34 583.81 1411.35 589.33C1411.24 591.982 1411.88 594.611 1413.19 596.92C1414.72 598.975 1416.91 600.438 1419.4 601.06L1422.4 601.75V604H1367.43ZM1433.24 604V601.7L1436 600.78C1441.52 598.94 1444.28 595.106 1444.28 589.28V466.28C1444.28 463.21 1443.66 460.91 1442.44 459.38C1441.21 457.69 1439.06 456.47 1436 455.7L1433 455.01V452.71L1475.09 442.82L1477.85 444.89L1476.94 477V572.68C1477.09 578.2 1477.17 583.72 1477.17 589.24C1477.06 591.892 1477.7 594.521 1479.01 596.83C1480.54 598.885 1482.73 600.348 1485.22 600.97L1488.22 601.66V604H1433.24ZM1525.94 478C1521.05 478.115 1516.29 476.391 1512.6 473.17C1510.88 471.553 1509.51 469.59 1508.6 467.41C1507.69 465.23 1507.25 462.882 1507.31 460.52C1507.22 458.153 1507.65 455.796 1508.56 453.612C1509.48 451.428 1510.85 449.468 1512.6 447.87C1516.28 444.633 1521.04 442.895 1525.94 443C1530.77 442.858 1535.47 444.589 1539.05 447.83C1540.8 449.428 1542.17 451.388 1543.09 453.572C1544 455.756 1544.43 458.113 1544.34 460.48C1544.4 462.842 1543.96 465.19 1543.05 467.37C1542.14 469.55 1540.77 471.513 1539.05 473.13C1535.47 476.385 1530.77 478.13 1525.94 478V478ZM1498.8 604V601.7L1502.02 600.78C1505.09 599.86 1507.16 598.48 1508.23 596.64C1509.56 594.424 1510.2 591.861 1510.07 589.28V517.28C1510.07 514.06 1509.46 511.683 1508.23 510.15C1507.16 508.456 1505.09 507.306 1502.02 506.7L1498.8 506.01V503.71L1540.94 490.15L1543.24 492.45L1542.55 525.11V589.51C1542.43 592.062 1542.99 594.6 1544.16 596.87C1545.69 598.92 1547.89 600.382 1550.37 601.01L1552.67 601.7V604H1498.8ZM1612.94 564.21C1602.36 564.21 1593.39 562.446 1586.03 558.92V566.74C1586.03 571.493 1588.41 574.33 1593.16 575.25L1636.4 583.25C1643.07 584.478 1649.62 586.326 1655.95 588.77C1661.36 590.646 1666.18 593.896 1669.95 598.2C1673.48 602.2 1675.25 607.72 1675.24 614.76C1675.23 622.299 1672.63 629.607 1667.88 635.46C1662.97 641.9 1655.68 647.036 1646.03 650.87C1636.52 654.87 1624.63 656.87 1610.38 656.87C1598.11 656.87 1588.38 655.566 1581.17 652.96C1573.96 650.506 1568.82 647.286 1565.76 643.3C1562.97 639.668 1561.44 635.229 1561.39 630.65C1561.39 625.13 1563.23 619.533 1566.91 613.86C1570.59 608.479 1575.36 603.933 1580.91 600.52C1576.16 598.68 1572.71 596.303 1570.56 593.39C1568.48 590.684 1567.35 587.371 1567.34 583.96C1567.32 580.967 1568.12 578.026 1569.64 575.45C1571.44 572.548 1573.44 569.78 1575.64 567.17L1583.23 557.51C1572.04 551.07 1566.45 540.95 1566.44 527.15C1566.44 516.11 1570.35 507.14 1578.17 500.24C1586.17 493.34 1597.84 489.89 1613.17 489.89C1620.09 489.765 1627 490.695 1633.64 492.65C1639.05 494.182 1644.06 496.848 1648.36 500.47C1653.08 499.754 1657.71 498.519 1662.16 496.79C1666.53 495.008 1670.59 492.522 1674.16 489.43L1677.38 491.73V503.46H1651.38C1656.9 509.586 1659.66 517.483 1659.66 527.15C1659.76 532.208 1658.74 537.227 1656.67 541.841C1654.59 546.456 1651.51 550.551 1647.66 553.83C1639.85 560.75 1628.27 564.21 1612.94 564.21ZM1612.71 559.61C1618.84 559.61 1623.29 557.08 1626.05 552.02C1628.96 546.96 1630.41 538.526 1630.42 526.72C1630.43 514.913 1628.97 506.633 1626.05 501.88C1623.29 496.973 1619 494.52 1613.17 494.52C1607.5 494.52 1603.2 497.05 1600.29 502.11C1597.38 507.016 1595.93 515.373 1595.92 527.18C1595.91 538.986 1597.22 547.343 1599.83 552.25C1602.6 557.163 1606.9 559.616 1612.73 559.61H1612.71ZM1578.44 623.32C1578.44 632.366 1581.2 639.19 1586.72 643.79C1592.39 648.39 1601.29 650.69 1613.4 650.69C1626.13 650.69 1635.72 648.62 1642.15 644.48C1648.58 640.34 1651.8 634.513 1651.81 627C1651.87 625.017 1651.47 623.047 1650.63 621.249C1649.79 619.451 1648.54 617.876 1646.98 616.65C1643.91 614.036 1638.62 612.036 1631.11 610.65L1589.48 602.83L1585.8 601.91C1583.58 605.109 1581.81 608.59 1580.51 612.26C1579.22 615.807 1578.52 619.545 1578.46 623.32H1578.44ZM1685.01 604V601.7L1688.46 600.78C1691.53 599.86 1693.6 598.48 1694.67 596.64C1695.98 594.499 1696.62 592.016 1696.51 589.51V517.51C1696.51 514.14 1695.9 511.68 1694.67 510.15C1693.6 508.456 1691.53 507.306 1688.46 506.7L1685.01 505.78V503.48L1724.57 490.14L1726.87 492.44L1728.94 512.22V514.06C1731.1 509.758 1733.89 505.804 1737.22 502.33C1740.58 498.769 1744.46 495.735 1748.72 493.33C1752.58 491.144 1756.93 489.959 1761.37 489.88C1767.2 489.88 1771.64 491.49 1774.71 494.71C1776.24 496.339 1777.43 498.255 1778.22 500.346C1779.01 502.438 1779.38 504.665 1779.31 506.9C1779.31 512.106 1777.78 516.17 1774.71 519.09C1773.31 520.442 1771.65 521.503 1769.83 522.214C1768.02 522.924 1766.08 523.269 1764.13 523.23C1757.69 523.23 1752.02 520.01 1747.13 513.57L1746.67 513.11C1745.14 510.96 1743.37 509.81 1741.38 509.66C1739.38 509.353 1737.54 510.273 1735.86 512.42C1734.27 513.868 1732.95 515.58 1731.95 517.48C1730.92 519.577 1730 521.727 1729.19 523.92V588.09C1729.19 594.223 1731.86 598.056 1737.19 599.59L1744.55 601.66V604H1685.01ZM1815.17 607.45C1806.28 607.45 1798.76 604.92 1792.63 599.86C1786.63 594.8 1783.63 587.516 1783.63 578.01C1783.63 570.796 1787.3 564.203 1794.63 558.23C1801.96 552.103 1813.54 547.503 1829.36 544.43C1831.81 543.97 1834.57 543.51 1837.64 543.05C1840.71 542.44 1843.93 541.82 1847.3 541.21V523C1847.3 512.573 1846 505.29 1843.39 501.15C1840.94 496.856 1837.03 494.71 1831.66 494.71C1830.02 494.632 1828.39 494.923 1826.87 495.559C1825.36 496.196 1824.01 497.163 1822.92 498.39C1820.77 500.69 1819.39 504.753 1818.78 510.58L1818.32 513.11C1818.01 519.703 1816.4 524.533 1813.49 527.6C1812.12 529.088 1810.44 530.268 1808.58 531.061C1806.72 531.854 1804.7 532.242 1802.68 532.2C1799.03 532.324 1795.47 531.001 1792.79 528.52C1791.47 527.243 1790.44 525.701 1789.77 523.996C1789.1 522.29 1788.79 520.461 1788.88 518.63C1788.81 515.685 1789.35 512.757 1790.46 510.028C1791.56 507.299 1793.22 504.825 1795.32 502.76C1799.77 498.466 1805.59 495.246 1812.8 493.1C1820.42 490.894 1828.33 489.809 1836.26 489.88C1849.91 489.88 1860.41 493.253 1867.77 500C1875.28 506.586 1879.03 517.396 1879.04 532.43V583.3C1879.04 590.2 1882.26 593.65 1888.7 593.65H1893.76L1895.83 595.49C1893.2 598.929 1889.91 601.821 1886.17 604C1882.8 606 1877.97 607 1871.68 607C1864.93 607 1859.57 605.466 1855.58 602.4C1851.72 599.136 1849.06 594.688 1847.99 589.75C1843.66 594.42 1838.88 598.656 1833.73 602.4C1829.03 605.76 1822.84 607.443 1815.17 607.45ZM1829.17 593.45C1832.13 593.474 1835.06 592.763 1837.68 591.38C1841.1 589.38 1844.34 587.07 1847.34 584.48V545.81L1842.74 546.73C1841.21 547.04 1839.44 547.34 1837.45 547.65C1830.4 549.49 1824.74 552.633 1820.45 557.08C1816.31 561.366 1814.24 567.193 1814.24 574.56C1814.24 580.853 1815.7 585.606 1818.61 588.82C1819.95 590.295 1821.58 591.469 1823.41 592.262C1825.23 593.055 1827.21 593.45 1829.2 593.42L1829.17 593.45ZM1896.11 656.93V654.63L1898.87 653.71C1904.54 652.183 1907.38 648.516 1907.38 642.71V517.52C1907.38 514.146 1906.77 511.616 1905.54 509.93C1904.47 508.236 1902.4 507.086 1899.33 506.48L1896.11 505.79V503.49L1935.21 490.15L1937.51 492.45L1939.58 499.58C1944.82 496.437 1950.47 494.038 1956.37 492.45C1962.67 490.76 1969.17 489.909 1975.69 489.92C1988.88 489.92 1999.31 494.98 2006.97 505.1C2014.79 515.1 2018.7 529.433 2018.7 548.1C2018.7 566.5 2014.41 580.99 2005.82 591.57C1997.39 602.15 1985.43 607.44 1969.94 607.44C1957.83 607.44 1947.64 605.676 1939.35 602.15V642C1939.35 648.126 1942.11 651.96 1947.63 653.5L1952 654.65V656.95L1896.11 656.93ZM1958.94 600.78C1966.61 600.78 1972.67 596.78 1977.11 588.78C1981.71 580.78 1984.01 567.516 1984.01 548.99C1984.01 530.463 1981.86 517.506 1977.57 510.12C1973.28 502.606 1967.07 498.85 1958.94 498.85C1953.27 498.85 1946.98 500.69 1940.08 504.37V597.1C1946.06 599.581 1952.47 600.832 1958.94 600.78V600.78ZM2028.94 604V601.7L2031.7 600.78C2037.22 598.94 2039.98 595.106 2039.98 589.28V466.46C2039.98 463.24 2039.45 460.86 2038.37 459.33C2037.29 457.8 2035.23 456.65 2032.16 455.88L2028.71 454.96V452.66L2069.19 442.77L2072.87 444.84L2071.95 477.27V506C2077.25 501.598 2083.04 497.816 2089.2 494.73C2095.61 491.481 2102.71 489.824 2109.9 489.9C2119.9 489.9 2127.8 492.736 2133.59 498.41C2139.59 504.083 2142.59 512.823 2142.59 524.63V589.49C2142.47 592.07 2143.11 594.631 2144.43 596.85C2145.66 598.69 2147.81 600.07 2150.87 600.99L2152.71 601.68V604H2098.89V601.7L2101.65 601.01C2107.17 599.17 2109.93 595.26 2109.93 589.28V517.06C2109.93 510.933 2108.86 506.716 2106.71 504.41C2104.71 502.11 2101.11 500.96 2095.9 500.96C2092.14 501.037 2088.43 501.737 2084.9 503.03C2080.47 504.5 2076.34 506.76 2072.71 509.7V589.7C2072.71 595.7 2075.47 599.533 2080.99 601.2L2082.83 601.66V604H2028.94ZM2175.87 659.2C2169.73 659.2 2164.82 657.666 2161.15 654.6C2159.44 653.166 2158.08 651.368 2157.17 649.337C2156.25 647.307 2155.81 645.096 2155.86 642.87C2155.79 640.908 2156.17 638.957 2156.96 637.163C2157.76 635.37 2158.96 633.782 2160.46 632.52C2163.31 629.989 2167 628.597 2170.81 628.61C2174.18 628.498 2177.51 629.292 2180.47 630.91C2183.25 632.775 2185.6 635.205 2187.37 638.04L2188.98 639.88C2192.35 644.48 2195.72 644.403 2199.1 639.65C2200.82 636.678 2202.35 633.606 2203.7 630.45C2206.04 625.566 2208.11 620.558 2209.91 615.45L2165.29 508.73C2164.45 506.288 2163.29 503.968 2161.84 501.83C2160.32 499.759 2158.24 498.164 2155.84 497.23L2151.7 495.62V493.32H2208.94V495.39L2204.34 497.23C2200.96 498.3 2199.2 500.07 2199.05 502.52C2199.19 505.513 2199.81 508.465 2200.89 511.26L2224.81 573.36L2247.58 510.57C2248.69 507.797 2249.16 504.81 2248.96 501.83C2248.65 499.383 2246.73 497.696 2243.21 496.77L2238.38 495.62V493.32H2270.38V495.62L2265.32 497.23C2261.79 498.3 2259.32 499.84 2257.96 501.83C2256.3 504.404 2254.98 507.188 2254.05 510.11L2217.05 611.11C2211.05 627.21 2205.07 639.246 2199.11 647.22C2193.15 655.193 2185.39 659.186 2175.83 659.2H2175.87Z" fill="#6F6E6E"/>
<path d="M991.88 607.45C981.76 607.45 973.094 605.61 965.88 601.93C959.264 598.502 953.703 593.341 949.79 587C946.095 580.817 944.185 573.732 944.27 566.53C944.27 547.983 956.23 533.723 980.15 523.75C975.958 518.074 972.117 512.146 968.65 506C965.316 499.536 963.655 492.34 963.82 485.07C963.82 474.183 967.654 465.516 975.32 459.07C983.14 452.476 993.337 449.18 1005.91 449.18C1018.18 449.18 1027.68 451.94 1034.43 457.46C1041.18 462.833 1044.56 469.963 1044.55 478.85C1044.55 486.356 1041.48 492.95 1035.35 498.63C1029.22 504.31 1020.48 509.523 1009.13 514.27C1012.04 517.49 1015.04 520.94 1018.13 524.62C1021.35 528.146 1024.65 531.673 1028.02 535.2C1032.16 539.8 1036.16 544.17 1040.02 548.31C1044.02 552.45 1048.02 556.743 1052.02 561.19C1056.1 555.431 1059.57 549.264 1062.37 542.79C1065.63 535.462 1068.17 527.837 1069.96 520.02C1071.19 514.193 1068.97 510.436 1063.29 508.75L1061.68 508.06V505.76H1087.68V508.06L1085.61 508.75C1083.19 509.508 1081 510.881 1079.27 512.735C1077.54 514.589 1076.31 516.862 1075.72 519.33C1073.51 527.661 1070.66 535.811 1067.21 543.71C1064.02 551.064 1060.09 558.076 1055.48 564.64L1080.09 590.64C1081.89 592.615 1083.9 594.389 1086.09 595.93C1088.09 597.31 1090.31 598.69 1092.76 600.07L1095.98 601.68V604H1049.52L1033.94 587.44C1030.87 590.811 1027.56 593.962 1024.05 596.87C1020.05 600.12 1015.55 602.685 1010.71 604.46C1004.67 606.586 998.286 607.599 991.88 607.45V607.45ZM1006.37 511.31C1012.37 505.936 1016.66 500.57 1019.25 495.21C1022.04 489.563 1023.46 483.338 1023.39 477.04C1023.39 471.04 1021.86 466.21 1018.79 462.55C1015.72 458.723 1011.5 456.806 1006.14 456.8C1003.76 456.748 1001.39 457.215 999.208 458.168C997.024 459.121 995.073 460.538 993.49 462.32C990.11 466 988.424 470.666 988.43 476.32C988.469 480.06 989.09 483.771 990.27 487.32C992.091 491.97 994.487 496.374 997.4 500.43C998.32 501.66 999.55 503.11 1001.08 504.8C1002.61 506.49 1004.38 508.7 1006.37 511.31V511.31ZM1005.22 592C1014.47 592.308 1023.53 589.288 1030.75 583.49C1027.07 579.35 1023.24 575.056 1019.25 570.61C1015.25 566.01 1011.49 561.64 1007.98 557.5C1003.69 552.44 999.477 547.38 995.33 542.32C991.33 537.26 987.33 532.353 983.33 527.6C979.436 531.139 976.44 535.554 974.59 540.48C972.747 545.407 971.811 550.628 971.83 555.89C971.83 566.323 974.897 574.99 981.03 581.89C987.337 588.63 995.4 592 1005.22 592Z" fill="#EEB7A2"/>
<path d="M96.5805 755.601V848.001H82.7205L44.0805 786.121L34.2805 768.761H34.1405L34.7005 782.761V848.001H24.0605V755.601H37.9405L76.4405 817.201L86.3605 835.001H86.5005L85.9405 820.841V755.601H96.5805ZM267.431 755.601L234.431 811.881V848.001H223.231V811.881L190.231 755.601H203.531L221.451 787.241L228.871 800.401L236.291 787.241L254.211 755.601H267.431ZM392.771 805.601V817.201H346.581V805.581L392.771 805.601ZM529.661 849.401C524.643 849.482 519.701 848.173 515.381 845.621C511.34 843.263 508.041 839.82 505.861 835.681L505.161 848.001H495.361V745.801H506.561V788.921C508.869 785.217 512.102 782.177 515.941 780.101C520.173 777.738 524.953 776.53 529.801 776.601C535.432 776.548 540.968 778.05 545.801 780.941C550.755 783.936 554.778 788.25 557.421 793.401C560.321 798.807 561.767 805.341 561.761 813.001C561.754 820.661 560.261 827.194 557.281 832.601C554.638 837.752 550.615 842.066 545.661 845.061C540.828 847.952 535.292 849.453 529.661 849.401V849.401ZM528.541 839.601C535.447 839.601 540.814 837.174 544.641 832.321C548.467 827.467 550.427 821.027 550.521 813.001C550.521 805.001 548.607 798.561 544.781 793.681C540.954 788.801 535.587 786.374 528.681 786.401C525.621 786.316 522.584 786.941 519.808 788.229C517.031 789.516 514.592 791.431 512.681 793.821C508.581 798.767 506.527 805.254 506.521 813.281C506.514 821.307 508.514 827.701 512.521 832.461C514.478 834.784 516.936 836.634 519.711 837.87C522.485 839.107 525.504 839.699 528.541 839.601V839.601ZM701.021 802.781C701.021 797.547 699.621 793.547 696.821 790.781C694.021 788.014 690.061 786.554 684.941 786.401C680.609 786.259 676.329 787.377 672.621 789.621C669.287 791.667 666.814 795.027 665.201 799.701L656.101 794.101C657.996 788.831 661.656 784.379 666.461 781.501C671.501 778.234 677.754 776.601 685.221 776.601C689.928 776.537 694.598 777.443 698.941 779.261C702.891 780.817 706.265 783.555 708.601 787.101C711.021 790.547 712.234 795.027 712.241 800.541V834.421C712.241 837.754 714.014 839.421 717.561 839.421C719.311 839.425 721.054 839.19 722.741 838.721L722.181 847.541C719.893 848.557 717.402 849.036 714.901 848.941C711.715 849.03 708.577 848.151 705.901 846.421C703.37 844.574 701.661 841.81 701.141 838.721C698.714 842.361 695.252 845.19 691.201 846.841C687.247 848.471 683.017 849.326 678.741 849.361C674.815 849.394 670.92 848.681 667.261 847.261C663.886 845.992 660.929 843.811 658.721 840.961C656.592 837.83 655.514 834.104 655.641 830.321C655.559 827.932 655.978 825.552 656.87 823.334C657.762 821.116 659.108 819.108 660.821 817.441C664.361 813.987 669.261 811.654 675.521 810.441L701.001 805.441L701.021 802.781ZM667.141 829.781C667.114 831.149 667.403 832.505 667.986 833.744C668.569 834.982 669.429 836.069 670.501 836.921C672.834 838.687 676.101 839.574 680.301 839.581C683.745 839.615 687.165 838.997 690.381 837.761C693.408 836.56 696.065 834.58 698.081 832.021C700.129 829.122 701.162 825.628 701.021 822.081V814.661L680.721 818.861C676.141 819.787 672.734 821.094 670.501 822.781C669.406 823.584 668.527 824.645 667.941 825.87C667.355 827.094 667.08 828.445 667.141 829.801V829.781ZM841.631 849.381C835.077 849.438 828.602 847.951 822.731 845.041C817.224 842.323 812.645 838.036 809.571 832.721L819.091 825.861C821.043 830.027 824.171 833.531 828.091 835.941C832.469 838.463 837.46 839.723 842.511 839.581C847.464 839.581 851.337 838.647 854.131 836.781C855.416 835.982 856.477 834.869 857.212 833.546C857.947 832.223 858.332 830.734 858.331 829.221C858.324 827.265 857.614 825.377 856.331 823.901C855.117 822.221 852.737 821.007 849.191 820.261L832.391 816.761C825.577 815.361 820.677 813.027 817.691 809.761C814.762 806.392 813.212 802.042 813.351 797.581C813.328 793.834 814.452 790.171 816.571 787.081C818.976 783.777 822.212 781.169 825.951 779.521C830.477 777.474 835.404 776.469 840.371 776.581C847.284 776.581 853.117 777.934 857.871 780.641C862.54 783.248 866.265 787.267 868.511 792.121L859.131 798.281C857.784 794.421 855.036 791.208 851.431 789.281C848.058 787.366 844.249 786.353 840.371 786.341C835.331 786.341 831.411 787.367 828.611 789.421C827.327 790.255 826.271 791.396 825.537 792.74C824.804 794.084 824.417 795.59 824.411 797.121C824.426 799.219 825.168 801.248 826.511 802.861C827.911 804.541 830.511 805.751 834.351 806.501L851.851 810.141C858.391 811.474 862.964 813.621 865.571 816.581C868.197 819.602 869.596 823.499 869.491 827.501C869.587 830.59 868.938 833.658 867.598 836.443C866.257 839.228 864.265 841.649 861.791 843.501C856.664 847.434 849.944 849.401 841.631 849.401V849.381ZM996.521 849.381C990.32 849.484 984.196 847.989 978.741 845.041C973.618 842.138 969.449 837.809 966.741 832.581C963.847 827.074 962.401 820.541 962.401 812.981C962.401 805.421 963.847 798.934 966.741 793.521C969.401 788.255 973.535 783.877 978.641 780.921C983.895 777.974 989.837 776.476 995.861 776.581C1002.39 776.581 1007.94 777.981 1012.52 780.781C1017.11 783.495 1020.8 787.483 1023.16 792.261C1025.64 797.259 1026.89 802.78 1026.8 808.361C1026.8 809.951 1026.8 811.361 1026.66 812.701C1026.59 813.874 1026.45 815.043 1026.24 816.201H973.421C973.981 823.574 976.267 829.314 980.281 833.421C984.294 837.527 989.627 839.581 996.281 839.581C1001.41 839.581 1005.56 838.601 1008.74 836.641C1012 834.691 1014.7 831.936 1016.58 828.641L1025.4 833.821C1022.77 838.6 1018.84 842.532 1014.06 845.161C1009.19 847.987 1003.34 849.401 996.521 849.401V849.381ZM995.521 786.381C989.641 786.381 984.787 788.154 980.961 791.701C977.134 795.247 974.754 800.101 973.821 806.261H1015.54C1015.26 799.907 1013.3 795.007 1009.66 791.561C1006.02 788.114 1001.31 786.394 995.541 786.401L995.521 786.381ZM1152.34 849.381C1146.71 849.433 1141.17 847.932 1136.34 845.041C1131.39 842.043 1127.37 837.73 1124.72 832.581C1121.83 827.074 1120.39 820.541 1120.38 812.981C1120.38 805.234 1121.92 798.654 1125 793.241C1127.83 788.079 1132.05 783.812 1137.18 780.921C1142.11 778.058 1147.72 776.56 1153.42 776.581C1158.14 776.497 1162.78 777.708 1166.86 780.081C1170.65 782.18 1173.68 785.411 1175.54 789.321V745.801H1186.74V848.001H1176.94L1176.24 834.841C1174.4 839.46 1171.05 843.312 1166.72 845.761C1162.33 848.186 1157.38 849.439 1152.36 849.401L1152.34 849.381ZM1153.46 839.581C1156.52 839.687 1159.57 839.071 1162.35 837.782C1165.13 836.493 1167.56 834.567 1169.46 832.161C1173.57 827.214 1175.62 820.494 1175.62 812.001C1175.62 804.001 1173.62 797.747 1169.62 793.241C1167.71 791.012 1165.32 789.239 1162.63 788.052C1159.94 786.865 1157.02 786.294 1154.08 786.381C1146.99 786.381 1141.49 788.807 1137.56 793.661C1133.63 798.514 1131.66 804.961 1131.64 813.001C1131.64 821.001 1133.55 827.441 1137.38 832.321C1141.21 837.201 1146.57 839.627 1153.48 839.601L1153.46 839.581ZM1439.73 849.381C1433.18 849.438 1426.7 847.951 1420.83 845.041C1415.32 842.323 1410.75 838.036 1407.67 832.721L1417.19 825.861C1419.14 830.029 1422.27 833.533 1426.19 835.941C1430.57 838.465 1435.56 839.725 1440.61 839.581C1445.56 839.581 1449.43 838.647 1452.23 836.781C1453.52 835.982 1454.58 834.869 1455.31 833.546C1456.05 832.223 1456.43 830.734 1456.43 829.221C1456.42 827.265 1455.71 825.377 1454.43 823.901C1453.22 822.221 1450.84 821.007 1447.29 820.261L1430.49 816.761C1423.68 815.361 1418.78 813.027 1415.79 809.761C1412.86 806.392 1411.31 802.042 1411.45 797.581C1411.42 793.834 1412.55 790.169 1414.67 787.081C1417.08 783.777 1420.31 781.169 1424.05 779.521C1428.58 777.473 1433.5 776.468 1438.47 776.581C1445.38 776.581 1451.22 777.934 1455.97 780.641C1460.64 783.248 1464.36 787.267 1466.61 792.121L1457.23 798.281C1455.88 794.423 1453.13 791.211 1449.53 789.281C1446.16 787.367 1442.35 786.354 1438.47 786.341C1433.43 786.341 1429.51 787.367 1426.71 789.421C1425.43 790.255 1424.37 791.396 1423.64 792.74C1422.9 794.084 1422.52 795.59 1422.51 797.121C1422.53 799.219 1423.27 801.248 1424.61 802.861C1426.01 804.541 1428.62 805.754 1432.45 806.501L1449.95 810.141C1456.48 811.474 1461.05 813.621 1463.67 816.581C1466.3 819.602 1467.7 823.499 1467.59 827.501C1467.69 830.59 1467.04 833.657 1465.7 836.442C1464.36 839.227 1462.36 841.648 1459.89 843.501C1454.78 847.434 1448.06 849.401 1439.75 849.401L1439.73 849.381ZM1594.34 776.581C1601.52 776.581 1607.49 778.247 1612.26 781.581C1617.14 784.991 1620.97 789.694 1623.32 795.161L1612.68 800.161C1611.49 796.157 1609.1 792.613 1605.84 790.001C1602.85 787.574 1598.93 786.361 1594.08 786.361C1587.08 786.361 1581.57 788.741 1577.56 793.501C1573.55 798.261 1571.59 804.761 1571.68 813.001C1571.68 821.307 1573.64 827.841 1577.56 832.601C1581.48 837.361 1586.99 839.694 1594.08 839.601C1599.58 839.601 1603.97 838.341 1607.24 835.821C1610.59 833.158 1612.87 829.383 1613.68 825.181L1624.04 828.821C1621.98 834.879 1618.1 840.158 1612.94 843.941C1607.99 847.581 1601.78 849.401 1594.32 849.401C1588.21 849.507 1582.17 848.011 1576.82 845.061C1571.7 842.16 1567.53 837.831 1564.82 832.601C1561.92 827.094 1560.47 820.561 1560.48 813.001C1560.49 805.441 1561.93 798.954 1564.82 793.541C1567.49 788.251 1571.67 783.868 1576.82 780.941C1582.19 777.984 1588.23 776.487 1594.36 776.601L1594.34 776.581ZM1720.72 848.001V745.801H1731.94V788.501C1734.12 784.526 1737.5 781.341 1741.6 779.401C1745.73 777.508 1750.22 776.552 1754.76 776.601C1759.5 776.535 1764.19 777.54 1768.48 779.541C1772.55 781.379 1775.96 784.405 1778.28 788.221C1780.8 792.141 1782.06 797.141 1782.06 803.221V848.001H1770.86V807.121C1770.86 799.374 1769.19 794.007 1765.86 791.021C1762.57 787.932 1758.19 786.271 1753.68 786.401C1750.18 786.431 1746.74 787.244 1743.6 788.781C1740.09 790.509 1737.17 793.236 1735.2 796.621C1733.05 800.167 1731.97 804.927 1731.98 810.901V848.001H1720.72ZM1913.38 776.601C1919.49 776.474 1925.53 777.972 1930.88 780.941C1936.03 783.874 1940.2 788.255 1942.88 793.541C1945.77 798.954 1947.21 805.441 1947.22 813.001C1947.23 820.561 1945.8 827.094 1942.94 832.601C1940.23 837.827 1936.06 842.155 1930.94 845.061C1925.59 848.03 1919.56 849.527 1913.44 849.401C1907.33 849.507 1901.29 848.011 1895.94 845.061C1890.82 842.16 1886.65 837.831 1883.94 832.601C1881.04 827.094 1879.59 820.561 1879.6 813.001C1879.61 805.441 1881.05 798.954 1883.94 793.541C1886.61 788.251 1890.79 783.868 1895.94 780.941C1901.28 778.001 1907.29 776.505 1913.38 776.601V776.601ZM1913.38 786.261C1906.28 786.261 1900.73 788.641 1896.72 793.401C1892.71 798.161 1890.71 804.694 1890.72 813.001C1890.72 821.307 1892.72 827.841 1896.72 832.601C1900.72 837.361 1906.27 839.741 1913.38 839.741C1920.47 839.741 1926.02 837.361 1930.04 832.601C1934.06 827.841 1936.06 821.307 1936.04 813.001C1936.04 804.694 1934.04 798.161 1930.04 793.401C1926.04 788.641 1920.49 786.261 1913.38 786.261ZM2074.32 776.601C2080.43 776.473 2086.47 777.971 2091.82 780.941C2096.97 783.868 2101.15 788.251 2103.82 793.541C2106.72 798.954 2108.17 805.441 2108.16 813.001C2108.15 820.561 2106.71 827.094 2103.82 832.601C2101.11 837.831 2096.95 842.16 2091.82 845.061C2086.47 848.031 2080.43 849.529 2074.32 849.401C2068.21 849.504 2062.18 848.007 2056.82 845.061C2051.7 842.155 2047.53 837.827 2044.82 832.601C2041.93 827.094 2040.48 820.561 2040.48 813.001C2040.48 805.441 2041.93 798.954 2044.82 793.541C2047.5 788.255 2051.67 783.874 2056.82 780.941C2062.18 777.994 2068.21 776.498 2074.32 776.601ZM2074.32 786.261C2067.23 786.261 2061.67 788.641 2057.66 793.401C2053.65 798.161 2051.65 804.694 2051.66 813.001C2051.66 821.307 2053.66 827.841 2057.66 832.601C2061.66 837.361 2067.21 839.741 2074.32 839.741C2081.42 839.741 2086.97 837.361 2090.98 832.601C2094.99 827.841 2096.99 821.307 2096.98 813.001C2096.98 804.694 2094.98 798.161 2090.98 793.401C2086.98 788.641 2081.43 786.261 2074.32 786.261ZM2216.94 745.801V830.221C2216.94 833.767 2217.61 836.241 2218.94 837.641C2220.27 839.041 2222.37 839.707 2225.24 839.641C2226.79 839.671 2228.34 839.53 2229.86 839.221C2231.52 838.802 2233.16 838.288 2234.76 837.681L2232.94 847.481C2229.66 848.842 2226.13 849.522 2222.58 849.481C2211.38 849.481 2205.78 843.227 2205.78 830.721V745.801H2216.94Z" fill="#96908E" fill-opacity="0.71"/>
<path d="M1154.78 366L1152.78 364.87C1151.93 364.415 1151.13 363.886 1150.38 363.29C1149.31 362.533 1148.31 361.69 1147.38 360.77C1144.82 358.203 1142.74 355.208 1141.22 351.92C1139.23 347.463 1137.97 342.716 1137.49 337.86C1136.23 326.93 1137.76 313.31 1142.12 298.25C1144.45 290.207 1147.46 282.375 1151.12 274.84C1153.09 270.753 1155.34 266.807 1157.86 263.03C1160.53 259.03 1163.26 254.936 1166.05 250.75C1177.25 234.02 1189.69 215.86 1205.2 198.24C1209.1 193.853 1213.19 189.52 1217.47 185.24C1221.81 181.02 1226.31 176.91 1231.09 172.95C1235.96 168.998 1241.02 165.293 1246.26 161.85C1251.67 158.418 1257.3 155.341 1263.11 152.64C1269.06 149.904 1275.23 147.689 1281.56 146.02C1284.73 145.13 1288 144.52 1291.28 143.87C1292.93 143.62 1294.6 143.38 1296.28 143.16C1297.1 143.04 1297.95 142.94 1298.82 142.85L1301.39 142.61C1315.16 141.3 1329.39 141.3 1343.18 143.72C1350.04 144.893 1356.75 146.828 1363.18 149.49C1369.44 152.018 1375.21 155.618 1380.24 160.13C1385 164.324 1388.52 169.749 1390.4 175.81C1392.09 181.66 1391.63 187.924 1389.09 193.46C1388.19 195.381 1387.1 197.207 1385.84 198.91C1384.52 200.652 1383.05 202.275 1381.45 203.76C1378.05 206.807 1374.25 209.378 1370.16 211.4C1361.75 215.52 1352.22 217.82 1342.6 218.91C1337.76 219.42 1332.9 219.68 1328.03 219.69C1323.16 219.69 1318.29 219.42 1313.44 219.01C1304.05 218 1294.79 215.989 1285.83 213.01C1276.9 210.065 1268.14 206.619 1259.6 202.69C1251.12 198.81 1242.88 194.703 1234.88 190.37C1218.88 181.77 1203.78 172.73 1189.4 163.81C1175.02 154.89 1161.4 146.06 1148.53 137.63C1135.66 129.2 1123.45 121.15 1111.98 113.63C1089.07 98.6297 1069.05 85.7497 1052.5 75.6297C1036.5 64.6897 1016.77 51.4397 992.769 37.7597C979.941 30.4369 966.736 23.7944 953.209 17.8597C945.959 14.7897 938.429 11.8597 930.469 9.2597C922.267 6.60504 913.886 4.53979 905.389 3.0797C896.3 1.47459 887.047 0.990972 877.839 1.6397C868.08 2.33551 858.52 4.74923 849.599 8.7697C848.45 9.25174 847.335 9.80964 846.259 10.4397C845.169 11.0497 844.049 11.6297 842.939 12.2297C841.829 12.8297 840.829 13.6197 839.759 14.2897C838.689 14.9597 837.649 15.6797 836.609 16.3797L833.609 18.7097L832.129 19.8897C831.618 20.2834 831.127 20.704 830.659 21.1497C829.643 22.0377 828.685 22.9896 827.789 23.9997C827.329 24.5097 826.869 24.9997 826.409 25.5497L825.149 27.2197L824.519 28.0697L823.939 28.9997L822.799 30.8197L821.799 32.7597C821.659 33.0697 821.489 33.4097 821.339 33.7597L820.959 34.7597C819.899 37.4616 819.245 40.3059 819.019 43.1997L818.939 45.3497V47.4797C818.96 48.1921 819.017 48.903 819.109 49.6097C819.17 50.3175 819.267 51.0217 819.399 51.7197C819.877 54.4534 820.624 57.1331 821.629 59.7197C823.643 64.7302 826.335 69.4408 829.629 73.7197C832.86 77.9666 836.479 81.9036 840.439 85.4797C844.419 89.0749 848.664 92.3643 853.139 95.3197C855.419 96.7897 857.719 98.1997 860.139 99.5097L861.939 100.51L863.749 101.41C864.959 102.02 866.179 102.62 867.409 103.2C872.383 105.46 877.485 107.427 882.689 109.09C887.911 110.756 893.219 112.141 898.589 113.24C909.373 115.448 920.313 116.809 931.309 117.31C947.214 117.997 963.147 117.559 978.989 116C994.529 114.57 1009.7 112.34 1024.46 109.8C1031.86 108.51 1039.13 107.16 1046.33 105.8C1048.15 105.44 1049.87 105.12 1051.76 104.71L1054.62 104.08L1057.4 103.38C1061.06 102.38 1064.65 101.29 1068.12 100.08C1075.12 97.7297 1081.72 95.0797 1088.24 92.3697C1094.76 89.6597 1101.11 86.8897 1107.34 84.0797C1132.23 72.8597 1155.41 61.5597 1177.34 51.4497C1199.27 41.3397 1219.73 32.2297 1238.79 24.7697C1257.85 17.3097 1275.44 11.4297 1291.24 7.5797C1307.04 3.7297 1321.06 2.0797 1332.47 2.6397C1343.88 3.1997 1352.54 5.9297 1357.78 8.8197C1358.43 9.1797 1359.09 9.4897 1359.65 9.8197L1361.2 10.8197C1361.68 11.1397 1362.12 11.4097 1362.53 11.6697C1362.94 11.9297 1363.26 12.2297 1363.53 12.4697L1365.37 13.8997C1365.37 13.8997 1364.79 13.3697 1363.63 12.3497L1362.63 11.4997L1361.37 10.5597L1359.94 9.4497C1359.38 9.0797 1358.78 8.7197 1358.12 8.3097C1353.01 5.0597 1344.36 1.6697 1332.67 0.499696C1320.98 -0.670304 1306.57 0.279696 1290.3 3.3597C1274.03 6.4397 1255.88 11.5997 1236.3 18.3597C1216.72 25.1197 1195.65 33.4797 1173.3 42.9397C1150.95 52.3997 1127.41 62.9997 1102.5 73.5397C1096.27 76.1497 1089.94 78.7497 1083.5 81.2697C1077.06 83.7897 1070.58 86.1897 1063.98 88.2697C1060.69 89.3297 1057.39 90.283 1054.07 91.1297L1051.6 91.7097L1049.15 92.2197C1047.48 92.5597 1045.61 92.8697 1043.86 93.2197C1036.71 94.4997 1029.49 95.7264 1022.22 96.8997C1007.65 99.2297 992.839 101.24 977.759 102.53C962.579 103.932 947.32 104.303 932.089 103.64C921.841 103.166 911.643 101.926 901.579 99.9297C896.688 98.9461 891.848 97.7179 887.079 96.2497C882.422 94.7907 877.851 93.068 873.389 91.0897L870.139 89.5297L868.509 88.7597L866.939 87.9297C864.849 86.8197 862.819 85.6097 860.829 84.3497C856.91 81.8258 853.183 79.0148 849.679 75.9397C842.819 69.8497 836.999 62.7497 833.879 55.2097C833.103 53.4107 832.523 51.5332 832.149 49.6097C832.029 49.1497 832.029 48.6897 831.939 48.2097C831.85 47.7515 831.8 47.2865 831.789 46.8197L831.719 45.4397L831.789 44.0797C831.92 42.2967 832.307 40.5418 832.939 38.8697L833.159 38.2397C833.24 38.0322 833.337 37.8316 833.449 37.6397L834.009 36.4297L834.709 35.2397L835.049 34.6597L835.459 34.0997L836.259 32.9597L837.259 31.8697C837.882 31.1322 838.55 30.4342 839.259 29.7797C839.617 29.4145 840.005 29.08 840.419 28.7797L841.659 27.7797C842.479 27.0997 843.309 26.4197 844.129 25.7197L846.749 23.8997C847.619 23.3197 848.469 22.6397 849.389 22.1297C850.309 21.6197 851.239 21.1297 852.129 20.5497C853.02 20.0054 853.945 19.521 854.899 19.0997C862.449 15.4866 870.571 13.216 878.899 12.3897C887.176 11.596 895.519 11.7907 903.749 12.9697C911.777 14.0904 919.716 15.7711 927.509 17.9997C935.189 20.2297 942.589 22.8297 949.739 25.5397C963.989 31.1397 977.179 37.3497 989.319 43.5397C1013.63 56.0497 1033.99 68.2897 1050.5 78.3497C1066.43 89.2597 1085.7 103.03 1107.9 119C1119 127 1130.9 135.51 1143.44 144.43C1155.98 153.35 1169.35 162.66 1183.55 172.09C1197.75 181.52 1212.76 191.09 1228.88 200.28C1236.88 204.88 1245.32 209.28 1254.04 213.51C1262.95 217.833 1272.11 221.636 1281.46 224.9C1291.33 228.386 1301.55 230.768 1311.94 232C1317.15 232.48 1322.43 232.84 1327.76 232.92C1333.17 232.986 1338.58 232.749 1343.96 232.21C1355.19 231.208 1366.15 228.257 1376.37 223.49C1381.69 220.891 1386.62 217.57 1391.03 213.62C1393.26 211.557 1395.31 209.302 1397.14 206.88C1398.99 204.386 1400.58 201.705 1401.87 198.88C1405.72 190.487 1406.43 180.991 1403.87 172.12C1401.28 163.667 1396.39 156.104 1389.74 150.28C1383.48 144.712 1376.29 140.291 1368.5 137.22C1361.06 134.22 1353.32 132.063 1345.4 130.79C1329.87 128.27 1314.52 128.59 1299.88 130.24L1297.14 130.58C1296.22 130.67 1295.32 130.79 1294.38 130.96L1288.83 131.86C1285.19 132.66 1281.53 133.41 1278.02 134.48C1271.06 136.464 1264.29 139.057 1257.78 142.23C1251.52 145.313 1245.48 148.814 1239.69 152.71C1234.18 156.511 1228.88 160.614 1223.82 165C1218.82 169.31 1214.27 173.8 1209.88 178.33C1205.49 182.86 1201.47 187.54 1197.61 192.19C1182.27 210.91 1170.42 229.81 1159.92 247.05C1157.3 251.363 1154.75 255.573 1152.28 259.68C1149.8 263.778 1147.62 268.045 1145.74 272.45C1142.33 280.398 1139.63 288.629 1137.67 297.05C1134.01 312.74 1133.23 326.82 1135.2 338.05C1136 343.049 1137.6 347.885 1139.95 352.37C1141.72 355.656 1144.06 358.604 1146.86 361.08C1147.87 361.947 1148.95 362.74 1150.08 363.45C1150.88 363.996 1151.72 364.474 1152.6 364.88L1154.78 366Z" fill="#96908E" fill-opacity="0.71"/>
<path d="M1155.02 365.999L1157.16 364.999C1158.03 364.585 1158.88 364.107 1159.68 363.569C1160.81 362.863 1161.89 362.071 1162.9 361.199C1165.71 358.739 1168.05 355.792 1169.81 352.499C1172.16 348.01 1173.76 343.171 1174.56 338.169C1176.56 326.949 1175.75 312.859 1172.09 297.169C1170.11 288.752 1167.41 280.521 1164.02 272.569C1162.14 268.163 1159.95 263.895 1157.47 259.799C1155 255.699 1152.45 251.489 1149.84 247.169C1139.34 229.929 1127.49 211.029 1112.14 192.309C1108.29 187.659 1104.22 182.999 1099.88 178.449C1095.54 173.899 1090.88 169.449 1085.94 165.119C1080.88 160.735 1075.57 156.632 1070.06 152.829C1064.27 148.933 1058.21 145.438 1051.94 142.369C1045.43 139.194 1038.66 136.598 1031.7 134.609C1028.19 133.519 1024.55 132.769 1020.89 131.989C1019.05 131.699 1017.21 131.379 1015.34 131.089C1014.34 130.919 1013.5 130.799 1012.58 130.709L1009.84 130.369C994.708 128.487 979.391 128.672 964.31 130.919C956.393 132.189 948.644 134.346 941.21 137.349C933.431 140.442 926.248 144.861 919.98 150.409C913.375 156.255 908.516 163.814 905.94 172.249C903.376 181.12 904.085 190.618 907.94 199.009C909.232 201.834 910.817 204.515 912.67 207.009C914.512 209.424 916.556 211.679 918.78 213.749C923.183 217.706 928.117 221.028 933.44 223.619C943.89 228.679 954.99 231.179 965.85 232.339C971.197 232.857 976.568 233.077 981.94 232.999C987.3 232.949 992.56 232.589 997.77 232.079C1008.17 230.846 1018.41 228.461 1028.29 224.969C1037.64 221.716 1046.8 217.912 1055.7 213.579C1064.43 209.389 1072.79 204.949 1080.87 200.349C1096.98 191.159 1112.01 181.589 1126.19 172.159C1140.37 162.729 1153.71 153.389 1166.31 144.499C1178.91 135.609 1190.74 127.069 1201.85 119.069C1224.05 103.069 1243.32 89.3492 1259.25 78.4192C1275.75 68.3592 1296.11 56.1192 1320.43 43.6092C1332.59 37.4092 1345.78 31.1992 1360.01 25.6092C1367.16 22.8992 1374.55 20.2792 1382.24 18.0692C1390.05 15.8277 1398 14.1368 1406.04 13.0092C1414.27 11.8306 1422.61 11.6359 1430.89 12.4292C1439.22 13.2386 1447.35 15.51 1454.89 19.1392C1455.85 19.5749 1456.78 20.0692 1457.68 20.6192C1458.6 21.1292 1459.52 21.6192 1460.42 22.1892C1461.32 22.7592 1462.16 23.3792 1463.06 23.9592L1465.68 25.7792C1466.5 26.4592 1467.33 27.1392 1468.15 27.8392L1469.39 28.8392C1469.8 29.1475 1470.18 29.4815 1470.55 29.8392C1471.25 30.4977 1471.92 31.1919 1472.55 31.9192L1473.5 33.0092L1474.3 34.1492L1474.71 34.7092L1475.05 35.2892L1475.75 36.4792L1476.31 37.6892C1476.41 37.8892 1476.5 38.0992 1476.6 38.2992L1476.82 38.9292C1477.44 40.6023 1477.81 42.3581 1477.91 44.1392L1477.98 45.4992L1477.91 46.8792C1477.9 47.3421 1477.85 47.8034 1477.77 48.2592C1477.72 48.733 1477.65 49.2038 1477.55 49.6692C1477.16 51.5949 1476.59 53.4823 1475.87 55.3092C1472.75 62.8492 1466.93 69.9592 1460.07 76.0392C1456.58 79.1261 1452.86 81.9473 1448.94 84.4792C1446.94 85.7392 1444.94 86.9492 1442.83 88.0692L1441.26 88.8892L1439.63 89.6692L1436.38 91.2192C1431.92 93.2034 1427.35 94.9263 1422.69 96.3792C1417.92 97.8601 1413.08 99.0917 1408.19 100.069C1398.12 102.061 1387.92 103.301 1377.67 103.779C1362.44 104.424 1347.19 104.05 1332.01 102.659C1316.95 101.379 1302.12 99.3592 1287.55 97.0392C1280.28 95.8659 1273.07 94.6359 1265.91 93.3492C1264.14 93.0392 1262.27 92.7192 1260.62 92.3492L1258.17 91.8392L1255.7 91.2592C1252.4 90.4092 1249.08 89.4692 1245.79 88.3992C1239.19 86.2892 1232.7 83.8692 1226.27 81.3992C1219.84 78.9292 1213.55 76.2892 1207.32 73.6692C1182.4 63.1292 1158.81 52.5092 1136.49 43.0792C1114.17 33.6492 1093.12 25.2392 1073.49 18.4992C1053.86 11.7592 1035.78 6.5992 1019.49 3.4992C1003.2 0.399198 988.94 -0.620803 977.23 0.589197C965.52 1.7992 956.94 5.1392 951.77 8.3892C951.12 8.7992 950.51 9.1392 949.96 9.5292L948.45 10.6192C947.99 10.9592 947.56 11.2792 947.19 11.6192L946.19 12.4692C945.03 13.4692 944.45 14.0192 944.45 14.0192L946.29 12.5892L947.29 11.7892L948.62 10.9392L950.17 9.9392C950.73 9.5992 951.38 9.2792 952.04 8.9392C957.33 5.9992 965.94 3.1992 977.4 2.7192C988.86 2.2392 1002.82 3.8592 1018.63 7.6692C1034.44 11.4792 1052.03 17.3392 1071.08 24.8492C1090.13 32.3592 1110.67 41.4092 1132.53 51.5392C1154.39 61.6692 1177.59 72.9192 1202.53 84.1692C1208.76 86.9492 1215.11 89.7392 1221.63 92.4592C1228.15 95.1792 1234.79 97.7892 1241.75 100.159C1245.22 101.349 1248.75 102.439 1252.46 103.459L1255.25 104.159L1258.11 104.789C1260 105.209 1261.72 105.519 1263.54 105.879C1270.74 107.289 1278.01 108.649 1285.41 109.929C1300.17 112.479 1315.34 114.679 1330.88 116.139C1346.72 117.699 1362.66 118.136 1378.56 117.449C1389.56 116.943 1400.5 115.582 1411.28 113.379C1416.65 112.273 1421.96 110.887 1427.18 109.229C1432.38 107.562 1437.48 105.595 1442.46 103.339C1443.69 102.759 1444.9 102.149 1446.12 101.549L1447.93 100.649L1449.73 99.6492C1452.13 98.3492 1454.43 96.9192 1456.73 95.4592C1461.21 92.5102 1465.46 89.2205 1469.43 85.6192C1473.39 82.0454 1477.01 78.1082 1480.24 73.8592C1483.52 69.5711 1486.21 64.8625 1488.24 59.8592C1489.23 57.2683 1489.98 54.5899 1490.47 51.8592C1490.62 51.1792 1490.66 50.4492 1490.76 49.7492C1490.86 49.0492 1490.93 48.3392 1490.93 47.6092V45.4792L1490.78 43.3192C1490.55 40.4294 1489.9 37.5891 1488.84 34.8892L1488.46 33.8892C1488.31 33.5492 1488.14 33.2392 1488 32.8892L1487 30.9492L1485.94 29.0892L1485.38 28.1992L1484.75 27.3492L1483.49 25.6792C1483.03 25.1392 1482.57 24.6292 1482.11 24.1192C1481.19 23.1071 1480.22 22.1457 1479.2 21.2392C1478.73 20.793 1478.24 20.3724 1477.72 19.9792L1476.24 18.7892L1473.24 16.4592C1472.24 15.7392 1471.13 15.0592 1470.09 14.3792C1469.05 13.6992 1468.03 12.9492 1466.92 12.3792L1463.59 10.5792C1462.51 9.95309 1461.4 9.39532 1460.25 8.9092C1451.33 4.87946 1441.76 2.46537 1431.99 1.7792C1422.81 1.15636 1413.59 1.62969 1404.52 3.1892C1396.02 4.65274 1387.64 6.71793 1379.43 9.3692C1371.43 11.9692 1363.95 14.9192 1356.7 17.9792C1343.18 23.92 1329.97 30.5624 1317.14 37.8792C1293.14 51.5492 1273.36 64.8092 1257.41 75.7392C1240.88 85.8492 1220.86 98.7392 1197.93 113.739C1186.49 121.259 1174.3 129.259 1161.37 137.739C1148.48 146.149 1134.88 154.999 1120.51 163.919C1106.14 172.839 1091.03 181.919 1075.03 190.489C1067.03 194.803 1058.79 198.906 1050.31 202.799C1041.77 206.732 1033.01 210.181 1024.08 213.129C1015.12 216.123 1005.86 218.134 996.47 219.129C991.62 219.519 986.75 219.809 981.88 219.809C977.013 219.808 972.15 219.551 967.31 219.039C957.69 217.949 948.16 215.639 939.75 211.519C935.649 209.511 931.846 206.943 928.45 203.889C926.857 202.398 925.392 200.775 924.07 199.039C922.812 197.329 921.724 195.5 920.82 193.579C918.28 188.047 917.815 181.786 919.51 175.939C921.392 169.876 924.907 164.447 929.67 160.249C934.703 155.749 940.474 152.15 946.73 149.609C953.162 146.952 959.87 145.017 966.73 143.839C980.55 141.419 994.73 141.439 1008.52 142.729L1011.11 142.989C1011.98 143.069 1012.83 143.159 1013.66 143.309C1015.33 143.549 1016.98 143.789 1018.66 144.009C1021.93 144.669 1025.2 145.269 1028.38 146.169C1034.71 147.839 1040.88 150.054 1046.82 152.789C1052.64 155.476 1058.27 158.553 1063.67 161.999C1068.91 165.435 1073.98 169.14 1078.84 173.099C1083.64 177.029 1088.15 181.169 1092.47 185.389C1096.79 189.609 1100.83 193.969 1104.73 198.389C1120.22 216.009 1132.73 234.189 1143.88 250.889C1146.67 255.089 1149.4 259.186 1152.07 263.179C1154.59 266.952 1156.84 270.899 1158.81 274.989C1162.47 282.521 1165.48 290.353 1167.81 298.399C1172.18 313.449 1173.7 327.099 1172.44 338.009C1171.95 342.863 1170.69 347.609 1168.71 352.069C1167.19 355.356 1165.1 358.352 1162.55 360.919C1161.62 361.84 1160.62 362.683 1159.55 363.439C1158.79 364.021 1157.99 364.545 1157.15 365.009C1155.73 365.589 1155.02 365.999 1155.02 365.999Z" fill="#96908E" fill-opacity="0.71"/>
</g>
<defs>
<clipPath id="clip0">
<rect width="2270.36" height="849.4" fill="white"/>
</clipPath>
</defs>
</svg>
